<?xml version="1.0" standalone="no"?>
<!DOCTYPE svg PUBLIC "-//W3C//DTD SVG 20010904//EN"
 "http://www.w3.org/TR/2001/REC-SVG-20010904/DTD/svg10.dtd">
<svg version="1.0" xmlns="http://www.w3.org/2000/svg"
 width="180.000000pt" height="180.000000pt" viewBox="0 0 180.000000 180.000000"
 preserveAspectRatio="xMidYMid meet">
<g transform="translate(0.000000,180.000000) scale(0.100000,-0.100000)"
fill="#000000" stroke="none">
<path d="M800 1400 c-150 -32 -270 -141 -315 -285 -20 -65 -20 -185 0 -250 45
-144 165 -253 315 -285 65 -14 185 -14 250 0 150 32 270 141 315 285 20 65 20
185 0 250 -45 144 -165 253 -315 285 -65 14 -185 14 -250 0z m245 -95 c118
-31 215 -128 246 -246 14 -53 14 -145 0 -198 -31 -118 -128 -215 -246 -246
-53 -14 -145 -14 -198 0 -118 31 -215 128 -246 246 -14 53 -14 145 0 198 31
118 128 215 246 246 53 14 145 14 198 0z"/>
<path d="M800 1200 c-64 -14 -130 -80 -144 -144 -14 -64 14 -148 64 -192 33
-29 106 -54 150 -54 44 0 117 25 150 54 50 44 78 128 64 192 -14 64 -80 130
-144 144 -64 14 -76 14 -140 0z"/>
</g>
</svg>
