<svg width="100" height="100" viewBox="0 0 100 100" fill="none" xmlns="http://www.w3.org/2000/svg">
<rect width="100" height="100" rx="15" fill="#E5E7EB"/>
<path d="M50 37.5C56.9036 37.5 62.5 43.0964 62.5 50C62.5 56.9036 56.9036 62.5 50 62.5C43.0964 62.5 37.5 56.9036 37.5 50C37.5 43.0964 43.0964 37.5 50 37.5ZM50 41.6667C45.3975 41.6667 41.6667 45.3975 41.6667 50C41.6667 54.6025 45.3975 58.3333 50 58.3333C54.6025 58.3333 58.3333 54.6025 58.3333 50C58.3333 45.3975 54.6025 41.6667 50 41.6667Z" fill="#9CA3AF"/>
<path d="M68.75 31.25C67.5378 31.25 66.5625 32.2253 66.5625 33.4375C66.5625 34.6497 67.5378 35.625 68.75 35.625C69.9622 35.625 70.9375 34.6497 70.9375 33.4375C70.9375 32.2253 69.9622 31.25 68.75 31.25Z" fill="#9CA3AF"/>
<path d="M25 75L43.75 56.25L60.4167 72.9167L68.75 64.5833L75 70.8333V75H25Z" fill="#9CA3AF"/>
</svg>
